<?xml version="1.0" encoding="iso-8859-1"?>
<!-- Generator: Adobe Illustrator 26.3.0, SVG Export Plug-In . SVG Version: 6.00 Build 0)  -->
<svg version="1.1" xmlns="http://www.w3.org/2000/svg" xmlns:xlink="http://www.w3.org/1999/xlink" x="0px" y="0px"
	 viewBox="0 0 256 256" style="enable-background:new 0 0 256 256;" xml:space="preserve">
<g id="Square-fireworks">
	<rect x="26" style="fill:#E377DC;" width="230" height="230"/>
</g>
<g id="Square-coral" style="display:none;">
	<rect x="26" style="display:inline;fill:#FFA3C2;" width="230" height="230"/>
</g>
<g id="Square-UV" style="display:none;">
	<rect x="26" style="display:inline;fill:#C2A8F0;" width="230" height="229.871"/>
</g>
<g id="icons">
	<g id="Collaboration-dkUV" style="display:none;">
		<path style="display:inline;fill:#48086F;" d="M12.299,26.827c-7.018,0-12.714,5.696-12.714,12.714v88.998l25.428-25.428h101.713
			c7.018,0,12.714-5.696,12.714-12.714V39.541c0-7.018-5.696-12.714-12.714-12.714H12.299z M164.868,39.541v50.856
			c0,9.803-3.818,18.664-9.908,25.428h48.05l25.428,25.428V52.255c0-7.018-5.696-12.714-12.714-12.714H164.868z M50.441,141.254
			c-14.044,0-25.428,11.385-25.428,25.428c0,14.044,11.385,25.428,25.428,25.428s25.428-11.385,25.428-25.428
			C75.869,152.638,64.485,141.254,50.441,141.254z M177.582,141.254c-14.044,0-25.428,11.385-25.428,25.428
			c0,14.044,11.385,25.428,25.428,25.428c14.044,0,25.428-11.385,25.428-25.428C203.01,152.638,191.625,141.254,177.582,141.254z
			 M50.441,217.538c-16.973,0-50.856,8.518-50.856,25.428v12.714h101.713v-12.714C101.297,226.057,67.414,217.538,50.441,217.538z
			 M177.582,217.538c-16.973,0-50.856,8.518-50.856,25.428v12.714h101.713v-12.714C228.438,226.057,194.555,217.538,177.582,217.538
			z"/>
	</g>
	<g id="Collaboration-black" style="display:none;">
		<path style="display:inline;" d="M12.299,26.827c-7.018,0-12.714,5.696-12.714,12.714v88.998l25.428-25.428h101.713
			c7.018,0,12.714-5.696,12.714-12.714V39.541c0-7.018-5.696-12.714-12.714-12.714H12.299z M164.868,39.541v50.856
			c0,9.803-3.818,18.664-9.908,25.428h48.05l25.428,25.428V52.255c0-7.018-5.696-12.714-12.714-12.714H164.868z M50.441,141.254
			c-14.044,0-25.428,11.385-25.428,25.428c0,14.044,11.385,25.428,25.428,25.428s25.428-11.385,25.428-25.428
			C75.869,152.638,64.485,141.254,50.441,141.254z M177.582,141.254c-14.044,0-25.428,11.385-25.428,25.428
			c0,14.044,11.385,25.428,25.428,25.428c14.044,0,25.428-11.385,25.428-25.428C203.01,152.638,191.625,141.254,177.582,141.254z
			 M50.441,217.538c-16.973,0-50.856,8.518-50.856,25.428v12.714h101.713v-12.714C101.297,226.057,67.414,217.538,50.441,217.538z
			 M177.582,217.538c-16.973,0-50.856,8.518-50.856,25.428v12.714h101.713v-12.714C228.438,226.057,194.555,217.538,177.582,217.538
			z"/>
	</g>
	<g id="Client-management-dkUV" style="display:none;">
		<path style="display:inline;fill:#48086F;" d="M-0.415,26v51.021h25.51V51.51h25.51V26H-0.415z M178.157,26v25.51h25.51v25.51
			h25.51V26H178.157z M114.381,51.51c-21.097,0-38.266,17.168-38.266,38.266s17.168,38.266,38.266,38.266
			s38.266-17.168,38.266-38.266S135.478,51.51,114.381,51.51z M114.381,140.797c-21.288,0-63.776,10.676-63.776,31.888v31.888
			h127.552v-31.888C178.157,151.473,135.67,140.797,114.381,140.797z M-0.415,204.573v51.021h51.021v-25.51h-25.51v-25.51H-0.415z
			 M203.668,204.573v25.51h-25.51v25.51h51.021v-51.021H203.668z"/>
	</g>
	<g id="Client-management-black" style="display:none;">
		<path style="display:inline;" d="M0.01,26.827v50.97h25.485V52.312h25.485V26.827H0.01z M178.404,26.827v25.485h25.485v25.485
			h25.485v-50.97H178.404z M114.692,52.312c-21.076,0-38.227,17.151-38.227,38.227s17.151,38.227,38.227,38.227
			s38.227-17.151,38.227-38.227S135.768,52.312,114.692,52.312z M114.692,141.509c-21.267,0-63.712,10.665-63.712,31.856v31.856
			h127.425v-31.856C178.404,152.175,135.959,141.509,114.692,141.509z M0.01,205.222v50.97h50.97v-25.485H25.495v-25.485H0.01z
			 M203.889,205.222v25.485h-25.485v25.485h50.97v-50.97H203.889z"/>
	</g>
	<g id="Brainstorm-dkUV" style="display:none;">
		<path style="display:inline;fill:#48086F;" d="M46.547,29.074c-2.882,0-5.218,2.336-5.218,5.218s2.336,5.218,5.218,5.218
			s5.218-2.336,5.218-5.218S49.429,29.074,46.547,29.074z M98.727,29.074c-2.882,0-5.218,2.336-5.218,5.218s2.336,5.218,5.218,5.218
			s5.218-2.336,5.218-5.218S101.609,29.074,98.727,29.074z M25.675,39.51c-2.882,0-5.218,2.336-5.218,5.218s2.336,5.218,5.218,5.218
			s5.218-2.336,5.218-5.218S28.557,39.51,25.675,39.51z M119.599,39.51c-2.882,0-5.218,2.336-5.218,5.218s2.336,5.218,5.218,5.218
			c2.882,0,5.218-2.336,5.218-5.218S122.481,39.51,119.599,39.51z M72.637,49.946c-23.055,0-41.744,18.69-41.744,41.744
			c0.018,19.02,12.892,35.624,31.308,40.379v11.802c0,5.761,4.675,10.436,10.436,10.436s10.436-4.675,10.436-10.436v-11.822
			c18.409-4.753,31.281-21.345,31.308-40.358C114.381,68.636,95.692,49.946,72.637,49.946z M150.908,49.946
			c-2.882,0-5.218,2.336-5.218,5.218s2.336,5.218,5.218,5.218s5.218-2.336,5.218-5.218S153.789,49.946,150.908,49.946z
			 M182.216,49.946c-2.882,0-5.218,2.336-5.218,5.218s2.336,5.218,5.218,5.218s5.218-2.336,5.218-5.218
			S185.098,49.946,182.216,49.946z M15.239,60.382c-2.882,0-5.218,2.336-5.218,5.218s2.336,5.218,5.218,5.218
			s5.218-2.336,5.218-5.218S18.121,60.382,15.239,60.382z M130.035,60.382c-2.882,0-5.218,2.336-5.218,5.218
			s2.336,5.218,5.218,5.218s5.218-2.336,5.218-5.218S132.917,60.382,130.035,60.382z M203.088,60.382
			c-2.882,0-5.218,2.336-5.218,5.218s2.336,5.218,5.218,5.218s5.218-2.336,5.218-5.218S205.97,60.382,203.088,60.382z
			 M166.562,70.818c-17.291,0-31.308,14.017-31.308,31.308c0.01,13.259,8.371,25.074,20.872,29.494v12.25
			c0,5.761,4.675,10.436,10.436,10.436s10.436-4.675,10.436-10.436V131.6c12.494-4.417,20.854-16.222,20.872-29.474
			C197.87,84.836,183.853,70.818,166.562,70.818z M213.524,81.254c-2.882,0-5.218,2.336-5.218,5.218s2.336,5.218,5.218,5.218
			s5.218-2.336,5.218-5.218S216.406,81.254,213.524,81.254z M72.637,164.743c-43.007,0-73.052,16.181-73.052,39.359v51.491H145.69
			v-51.491C145.69,180.924,115.644,164.743,72.637,164.743z M166.562,164.743c-6.439,0-12.602,0.49-18.447,1.325
			c11.782,10.029,18.447,22.975,18.447,38.035v51.491h62.616v-57.28C229.178,178.548,203.422,164.743,166.562,164.743z"/>
	</g>
	<g id="Brainstorm-black" style="display:none;">
		<path style="display:inline;" d="M46.547,29.074c-2.882,0-5.218,2.336-5.218,5.218s2.336,5.218,5.218,5.218
			s5.218-2.336,5.218-5.218S49.429,29.074,46.547,29.074z M98.727,29.074c-2.882,0-5.218,2.336-5.218,5.218s2.336,5.218,5.218,5.218
			s5.218-2.336,5.218-5.218S101.609,29.074,98.727,29.074z M25.675,39.51c-2.882,0-5.218,2.336-5.218,5.218s2.336,5.218,5.218,5.218
			s5.218-2.336,5.218-5.218S28.557,39.51,25.675,39.51z M119.599,39.51c-2.882,0-5.218,2.336-5.218,5.218s2.336,5.218,5.218,5.218
			c2.882,0,5.218-2.336,5.218-5.218S122.481,39.51,119.599,39.51z M72.637,49.946c-23.055,0-41.744,18.69-41.744,41.744
			c0.018,19.02,12.892,35.624,31.308,40.379v11.802c0,5.761,4.675,10.436,10.436,10.436s10.436-4.675,10.436-10.436v-11.822
			c18.409-4.753,31.281-21.345,31.308-40.358C114.381,68.636,95.692,49.946,72.637,49.946z M150.908,49.946
			c-2.882,0-5.218,2.336-5.218,5.218s2.336,5.218,5.218,5.218s5.218-2.336,5.218-5.218S153.789,49.946,150.908,49.946z
			 M182.216,49.946c-2.882,0-5.218,2.336-5.218,5.218s2.336,5.218,5.218,5.218s5.218-2.336,5.218-5.218
			S185.098,49.946,182.216,49.946z M15.239,60.382c-2.882,0-5.218,2.336-5.218,5.218s2.336,5.218,5.218,5.218
			s5.218-2.336,5.218-5.218S18.121,60.382,15.239,60.382z M130.035,60.382c-2.882,0-5.218,2.336-5.218,5.218
			s2.336,5.218,5.218,5.218s5.218-2.336,5.218-5.218S132.917,60.382,130.035,60.382z M203.088,60.382
			c-2.882,0-5.218,2.336-5.218,5.218s2.336,5.218,5.218,5.218s5.218-2.336,5.218-5.218S205.97,60.382,203.088,60.382z
			 M166.562,70.818c-17.291,0-31.308,14.017-31.308,31.308c0.01,13.259,8.371,25.074,20.872,29.494v12.25
			c0,5.761,4.675,10.436,10.436,10.436s10.436-4.675,10.436-10.436V131.6c12.494-4.417,20.854-16.222,20.872-29.474
			C197.87,84.836,183.853,70.818,166.562,70.818z M213.524,81.254c-2.882,0-5.218,2.336-5.218,5.218s2.336,5.218,5.218,5.218
			s5.218-2.336,5.218-5.218S216.406,81.254,213.524,81.254z M72.637,164.743c-43.007,0-73.052,16.181-73.052,39.359v51.491H145.69
			v-51.491C145.69,180.924,115.644,164.743,72.637,164.743z M166.562,164.743c-6.439,0-12.602,0.49-18.447,1.325
			c11.782,10.029,18.447,22.975,18.447,38.035v51.491h62.616v-57.28C229.178,178.548,203.422,164.743,166.562,164.743z"/>
	</g>
	<g id="Attract-customer-dkUV">
		<path style="fill:#48086F;" d="M195.977,26.827c-12.052,0-21.821,9.77-21.821,21.821s9.77,21.821,21.821,21.821
			s21.821-9.77,21.821-21.821S208.028,26.827,195.977,26.827z M86.87,58.131c-48.077,0-87.285,39.208-87.285,87.285
			s39.208,87.285,87.285,87.285h54.553v-65.464H86.87c-12.184,0-21.821-9.638-21.821-21.821s9.638-21.821,21.821-21.821h54.553
			v-10.911V58.131H86.87z M86.87,79.952h32.732v21.821H86.87c-23.974,0-43.643,19.668-43.643,43.643H21.406
			C21.406,109.132,50.586,79.952,86.87,79.952z M195.977,81.38c-21.821,0-32.732,9.765-32.732,21.821v10.911h65.464v-10.911
			C228.709,91.145,217.798,81.38,195.977,81.38z M195.977,168.395c-12.052,0-21.821,9.77-21.821,21.821
			c0,12.052,9.77,21.821,21.821,21.821s21.821-9.77,21.821-21.821C217.798,178.165,208.028,168.395,195.977,168.395z
			 M195.977,222.948c-21.821,0-32.732,9.765-32.732,21.821v10.911h65.464V244.77C228.709,232.713,217.798,222.948,195.977,222.948z"
			/>
	</g>
	<g id="Attract-customer-black" style="display:none;">
		<path style="display:inline;" d="M195.944,26.827c-12.05,0-21.818,9.768-21.818,21.818s9.768,21.818,21.818,21.818
			s21.818-9.768,21.818-21.818S207.994,26.827,195.944,26.827z M86.856,58.126c-48.069,0-87.271,39.202-87.271,87.271
			s39.202,87.271,87.271,87.271H141.4v-65.453H86.856c-12.182,0-21.818-9.636-21.818-21.818s9.636-21.818,21.818-21.818H141.4
			V112.67V58.126H86.856z M86.856,79.943h32.727v21.818H86.856c-23.97,0-43.635,19.665-43.635,43.635H21.402
			C21.402,109.118,50.578,79.943,86.856,79.943z M195.944,81.371c-21.818,0-32.727,9.763-32.727,21.818v10.909h65.453v-10.909
			C228.671,91.135,217.762,81.371,195.944,81.371z M195.944,168.372c-12.05,0-21.818,9.768-21.818,21.818
			c0,12.05,9.768,21.818,21.818,21.818s21.818-9.768,21.818-21.818C217.762,178.14,207.994,168.372,195.944,168.372z
			 M195.944,222.916c-21.818,0-32.727,9.763-32.727,21.818v10.909h65.453v-10.909C228.671,232.68,217.762,222.916,195.944,222.916z"
			/>
	</g>
	<g id="Answers-dkUV" style="display:none;">
		<path style="display:inline;fill:#48086F;" d="M76.648,26.618c-14.015,0-25.367,11.352-25.367,25.367v177.57
			c0,14.015,11.352,25.367,25.367,25.367h126.836c14.015,0,25.367-11.352,25.367-25.367V51.985
			c0-14.015-11.352-25.367-25.367-25.367H76.648z M0.546,39.301v202.938h25.367V39.301H0.546z M127.382,64.669h25.367v101.469
			h-25.367V64.669z M127.382,191.504h25.367v25.367h-25.367V191.504z"/>
	</g>
	<g id="AnswersBlack" style="display:none;">
		<path style="display:inline;" d="M75.976,26.378c-14.068,0-25.463,11.395-25.463,25.463v178.242
			c0,14.068,11.395,25.463,25.463,25.463h127.316c14.068,0,25.463-11.395,25.463-25.463V51.841
			c0-14.068-11.395-25.463-25.463-25.463H75.976z M-0.413,39.11v203.705H25.05V39.11H-0.413z M126.903,64.573h25.463v101.853
			h-25.463V64.573z M126.903,191.889h25.463v25.463h-25.463V191.889z"/>
	</g>
	<g id="AccuracyBlack" style="display:none;">
		<path style="display:inline;" d="M103.797,26.378v21.444c-43.366,4.83-77.927,39.376-82.759,82.724H-0.415v20.833h21.453
			c4.832,43.347,39.393,77.894,82.759,82.724v21.444h20.843v-21.444c43.366-4.83,77.927-39.376,82.759-82.724h21.453v-20.833
			h-21.453c-4.832-43.347-39.393-77.893-82.759-82.724V26.378H103.797z M103.797,68.859v21.078
			c-20.333,4.172-36.453,20.285-40.627,40.609H42.084C46.64,98.548,71.786,73.413,103.797,68.859z M124.64,68.859
			c32.012,4.554,57.157,29.689,61.713,61.687h-21.087c-4.173-20.324-20.294-36.437-40.627-40.609V68.859z M114.219,109.712
			c17.39,0,31.264,13.868,31.264,31.25s-13.874,31.25-31.264,31.25s-31.264-13.868-31.264-31.25S96.829,109.712,114.219,109.712z
			 M114.219,130.545c-5.756,0-10.421,4.664-10.421,10.417c0,5.753,4.666,10.417,10.421,10.417s10.421-4.664,10.421-10.417
			C124.64,135.209,119.974,130.545,114.219,130.545z M42.084,151.379h21.087c4.173,20.324,20.294,36.437,40.627,40.609v21.078
			C71.786,208.511,46.64,183.377,42.084,151.379z M165.266,151.379h21.087c-4.556,31.998-29.702,57.132-61.713,61.687v-21.078
			C144.973,187.816,161.093,171.703,165.266,151.379z"/>
	</g>
	<g id="Lightening" style="display:none;">
		<polygon style="display:inline;" points="156.857,26.827 104.552,26.827 51.131,156.304 100.952,156.304 51.846,255.705 
			143.904,133.734 93.406,133.734 		"/>
	</g>
</g>
</svg>
