<?xml version="1.0" encoding="iso-8859-1"?>
<!-- Generator: Adobe Illustrator 26.3.1, SVG Export Plug-In . SVG Version: 6.00 Build 0)  -->
<svg version="1.1" xmlns="http://www.w3.org/2000/svg" xmlns:xlink="http://www.w3.org/1999/xlink" x="0px" y="0px"
	 viewBox="0 0 256 256" style="enable-background:new 0 0 256 256;" xml:space="preserve">
<g id="Guides__x28_DO_NOT_MOVE_x29_" style="display:none;">
	<g style="display:inline;">
		<rect x="25.622" y="0.252" style="fill:#BDA7D0;" width="230.174" height="230.174"/>
		<g>
			<defs>
				<rect id="SVGID_1_" x="0.048" y="0.252" width="255.748" height="255.748"/>
			</defs>
			<clipPath id="SVGID_00000092427402679426305190000015671332224450523538_">
				<use xlink:href="#SVGID_1_"  style="overflow:visible;"/>
			</clipPath>
			<path style="clip-path:url(#SVGID_00000092427402679426305190000015671332224450523538_);fill:#49256C;" d="M183.477,100.585
				l-10.506,10.506l30.736,118.437c1.243,4.813-0.163,9.928-3.667,13.432l-13.038,13.038l-56.075-102.842l-51.421,51.421
				l7.258,29.053c1.315,5.181-0.21,10.665-3.984,14.445l-7.949,7.923l-27.851-46.465l0.342-0.348l-0.532,0.072L0.049,181.197
				l7.923-7.928c3.78-3.775,9.263-5.299,14.445-4.005l29.053,7.279l51.421-51.421h-0.025L0.049,69.021l13.038-13.012
				c3.503-3.524,8.618-4.91,13.406-3.663l118.442,30.706l15.34-15.34l36.081-36.055c7.719-7.719,20.158-7.785,27.923-0.118
				c3.959,3.898,5.944,9.008,5.944,14.122c0,5.069-1.938,10.138-5.831,14.03L183.477,100.585z"/>
		</g>
		<line style="fill:none;stroke:#808080;stroke-width:0.325;" x1="0.048" y1="255.873" x2="255.797" y2="255.873"/>
		<line style="fill:none;stroke:#808080;stroke-width:0.325;" x1="51.273" y1="256" x2="51.273" y2="0.252"/>
		<line style="fill:none;stroke:#808080;stroke-width:0.325;" x1="25.725" y1="256" x2="25.725" y2="0.252"/>
		<line style="fill:none;stroke:#808080;stroke-width:0.325;" x1="0.175" y1="256" x2="0.175" y2="0.252"/>
		<line style="fill:none;stroke:#808080;stroke-width:0.325;" x1="76.824" y1="256" x2="76.824" y2="0.252"/>
		<line style="fill:none;stroke:#808080;stroke-width:0.325;" x1="102.372" y1="256" x2="102.372" y2="0.252"/>
		<line style="fill:none;stroke:#808080;stroke-width:0.325;" x1="127.922" y1="256" x2="127.922" y2="0.252"/>
		<line style="fill:none;stroke:#808080;stroke-width:0.325;" x1="153.473" y1="256" x2="153.473" y2="0.252"/>
		<line style="fill:none;stroke:#808080;stroke-width:0.325;" x1="179.021" y1="256" x2="179.021" y2="0.252"/>
		<line style="fill:none;stroke:#808080;stroke-width:0.325;" x1="204.571" y1="256" x2="204.571" y2="0.252"/>
		<line style="fill:none;stroke:#808080;stroke-width:0.325;" x1="230.119" y1="256" x2="230.119" y2="0.252"/>
		<line style="fill:none;stroke:#808080;stroke-width:0.325;" x1="255.67" y1="256" x2="255.67" y2="0.252"/>
		<line style="fill:none;stroke:#808080;stroke-width:0.325;" x1="0.048" y1="204.775" x2="255.797" y2="204.775"/>
		<line style="fill:none;stroke:#808080;stroke-width:0.325;" x1="0.048" y1="230.323" x2="255.797" y2="230.323"/>
		<line style="fill:none;stroke:#808080;stroke-width:0.325;" x1="0.048" y1="179.224" x2="255.797" y2="179.224"/>
		<line style="fill:none;stroke:#808080;stroke-width:0.325;" x1="0.048" y1="153.676" x2="255.797" y2="153.676"/>
		<line style="fill:none;stroke:#808080;stroke-width:0.325;" x1="0.048" y1="128.126" x2="255.797" y2="128.126"/>
		<line style="fill:none;stroke:#808080;stroke-width:0.325;" x1="0.048" y1="102.575" x2="255.797" y2="102.575"/>
		<line style="fill:none;stroke:#808080;stroke-width:0.325;" x1="0.048" y1="77.027" x2="255.797" y2="77.027"/>
		<line style="fill:none;stroke:#808080;stroke-width:0.325;" x1="0.048" y1="51.477" x2="255.797" y2="51.477"/>
		<line style="fill:none;stroke:#808080;stroke-width:0.325;" x1="0.048" y1="25.929" x2="255.797" y2="25.929"/>
		<line style="fill:none;stroke:#808080;stroke-width:0.325;" x1="0.048" y1="0.378" x2="255.797" y2="0.378"/>
		<rect x="0.556" y="26.309" style="fill:none;stroke:#49256C;stroke-width:1.3;" width="229.198" height="229.189"/>
		<rect x="26.091" y="0.759" style="fill:none;stroke:#49256C;stroke-width:1.3;" width="229.198" height="229.189"/>
	</g>
</g>
<g id="colors">
	<g id="Square-gray" style="display:none;">
		<g style="display:inline;">
			<rect x="26" style="fill:#E6E6E6;" width="230" height="230"/>
		</g>
	</g>
	<g id="Square-stratosphere" style="display:none;">
		<g style="display:inline;">
			<rect x="26" style="fill:#C3D7FE;" width="230" height="230"/>
		</g>
	</g>
	<g id="Square-infinity">
		<g>
			<rect x="26" style="fill:#A8E8E2;" width="230" height="230"/>
		</g>
	</g>
	<g id="Square-mandarin" style="display:none;">
		<g style="display:inline;">
			<rect x="26" style="fill:#FFBFAC;" width="230" height="230"/>
		</g>
	</g>
	<g id="Square-submarine" style="display:none;">
		<g style="display:inline;">
			<rect x="26" style="fill:#F8E19A;" width="230" height="230"/>
		</g>
	</g>
	<g id="Square-fireworks" style="display:none;">
		<rect x="26" style="display:inline;fill:#E377DC;" width="230" height="230"/>
	</g>
	<g id="Square-coral" style="display:none;">
		<rect x="26" style="display:inline;fill:#FFA3C2;" width="230" height="230"/>
	</g>
	<g id="Square-UV" style="display:none;">
		<rect x="26" style="display:inline;fill:#C2A8F0;" width="230.129" height="230"/>
	</g>
</g>
<g id="icons">
	<g id="Videoconference-dkUV" style="display:none;">
		<path style="display:inline;fill:#48086F;" d="M23.223,41.763c-11.535,0-20.878,9.343-20.878,20.878v125.266
			c0,11.535,9.343,20.878,20.878,20.878h52.194v45.769h83.511v-45.769h52.194c11.535,0,20.878-9.343,20.878-20.878V62.641
			c0-11.535-9.343-20.878-20.878-20.878H23.223z M23.223,62.641h187.899v125.266H23.223V62.641z M44.101,83.519v31.317h41.755
			V83.519H44.101z M148.489,83.519c-11.53,0-20.878,9.347-20.878,20.878s9.347,20.878,20.878,20.878s20.878-9.347,20.878-20.878
			S160.02,83.519,148.489,83.519z M44.101,135.713v31.316h41.755v-31.316H44.101z M148.489,135.713
			c-22.809,0-41.755,9.487-41.755,23.141v8.176h83.511v-8.176C190.245,145.2,171.298,135.713,148.489,135.713z"/>
	</g>
	<g id="Video-conference-black" style="display:none;">
		<path style="display:inline;" d="M23.223,41.763c-11.535,0-20.878,9.343-20.878,20.878v125.266
			c0,11.535,9.343,20.878,20.878,20.878h52.194v45.769h83.511v-45.769h52.194c11.535,0,20.878-9.343,20.878-20.878V62.641
			c0-11.535-9.343-20.878-20.878-20.878H23.223z M23.223,62.641h187.899v125.266H23.223V62.641z M44.101,83.519v31.317h41.755
			V83.519H44.101z M148.489,83.519c-11.53,0-20.878,9.347-20.878,20.878s9.347,20.878,20.878,20.878s20.878-9.347,20.878-20.878
			S160.02,83.519,148.489,83.519z M44.101,135.713v31.316h41.755v-31.316H44.101z M148.489,135.713
			c-22.809,0-41.755,9.487-41.755,23.141v8.176h83.511v-8.176C190.245,145.2,171.298,135.713,148.489,135.713z"/>
	</g>
	<g id="Trust-dkUV" style="display:none;">
		<path style="display:inline;fill:#48086F;" d="M126.383,26.741c-19.155,0-34.68,15.525-34.68,34.68
			c0,28.371,63.046,78.808,63.046,78.808s63.046-50.437,63.046-78.808c0-19.155-15.525-34.68-34.68-34.68
			c-18.249,0-28.366,13.164-28.366,13.164S144.632,26.741,126.383,26.741z M213.049,141.371c-4.15,0-8.299,1.583-11.463,4.746
			l-52.568,52.568h-45.852c-3.164,0-5.731-2.568-5.731-5.731s2.568-5.731,5.731-5.731h22.926c12.667,0,22.926-10.259,22.926-22.926
			v-11.463H76.3c-12.162,0-23.821,4.824-32.419,13.433L0,210.148L45.852,256l22.926-22.926h82.211
			c6.075,0,11.911-2.418,16.209-6.717l57.315-57.315c6.328-6.328,6.328-16.598,0-22.926
			C221.348,142.953,217.199,141.371,213.049,141.371z"/>
	</g>
	<g id="Trust-black" style="display:none;">
		<path style="display:inline;" d="M126.383,26.741c-19.155,0-34.68,15.525-34.68,34.68c0,28.371,63.046,78.808,63.046,78.808
			s63.046-50.437,63.046-78.808c0-19.155-15.525-34.68-34.68-34.68c-18.249,0-28.366,13.164-28.366,13.164
			S144.632,26.741,126.383,26.741z M213.049,141.371c-4.15,0-8.299,1.583-11.463,4.746l-52.568,52.568h-45.852
			c-3.164,0-5.731-2.568-5.731-5.731s2.568-5.731,5.731-5.731h22.926c12.667,0,22.926-10.259,22.926-22.926v-11.463H76.3
			c-12.162,0-23.821,4.824-32.419,13.433L0,210.148L45.852,256l22.926-22.926h82.211c6.075,0,11.911-2.418,16.209-6.717
			l57.315-57.315c6.328-6.328,6.328-16.598,0-22.926C221.348,142.953,217.199,141.371,213.049,141.371z"/>
	</g>
	<g id="Team-dkUV" style="display:none;">
		<path style="display:inline;fill:#48086F;" d="M114.908,29.789c-18.51,0-33.515,15.005-33.515,33.515s15.005,33.515,33.515,33.515
			s33.515-15.005,33.515-33.515S133.418,29.789,114.908,29.789z M43.09,58.516c-13.221,0-23.939,10.718-23.939,23.939
			s10.718,23.939,23.939,23.939S67.03,95.677,67.03,82.456S56.312,58.516,43.09,58.516z M186.725,58.516
			c-13.221,0-23.939,10.718-23.939,23.939s10.718,23.939,23.939,23.939c13.221,0,23.939-10.718,23.939-23.939
			S199.947,58.516,186.725,58.516z M114.908,115.97c-22.369,0-67.03,11.232-67.03,33.515V256h134.059V149.485
			C181.938,127.203,137.277,115.97,114.908,115.97z M37.33,126.051C22.191,128.387,0,138.847,0,151.449V256h28.727V149.485
			C28.727,140.283,32.035,132.562,37.33,126.051z M192.486,126.051c5.295,6.511,8.603,14.232,8.603,23.434V256h28.727V151.449
			C229.816,138.847,207.625,128.387,192.486,126.051z"/>
	</g>
	<g id="Team-black" style="display:none;">
		<path style="display:inline;" d="M114.908,29.789c-18.51,0-33.515,15.005-33.515,33.515s15.005,33.515,33.515,33.515
			s33.515-15.005,33.515-33.515S133.418,29.789,114.908,29.789z M43.09,58.516c-13.221,0-23.939,10.718-23.939,23.939
			s10.718,23.939,23.939,23.939S67.03,95.677,67.03,82.456S56.312,58.516,43.09,58.516z M186.725,58.516
			c-13.221,0-23.939,10.718-23.939,23.939s10.718,23.939,23.939,23.939c13.221,0,23.939-10.718,23.939-23.939
			S199.947,58.516,186.725,58.516z M114.908,115.97c-22.369,0-67.03,11.232-67.03,33.515V256h134.059V149.485
			C181.938,127.203,137.277,115.97,114.908,115.97z M37.33,126.051C22.191,128.387,0,138.847,0,151.449V256h28.727V149.485
			C28.727,140.283,32.035,132.562,37.33,126.051z M192.486,126.051c5.295,6.511,8.603,14.232,8.603,23.434V256h28.727V151.449
			C229.816,138.847,207.625,128.387,192.486,126.051z"/>
	</g>
	<g id="Speaker-notes-dkUV" style="display:none;">
		<path style="display:inline;fill:#48086F;" d="M23.213,25c-12.611,0-23.1,10.453-23.1,23.077L0,256l46.2-46.2h161.7
			c12.625,0,23.1-10.475,23.1-23.1V48.1c0-12.625-10.475-23.1-23.1-23.1H23.213z M46.2,82.75h23.1v23.1H46.2V82.75z M92.4,82.75
			h92.4v23.1H92.4V82.75z M46.2,128.95h23.1v23.1H46.2V128.95z M92.4,128.95h92.4v23.1H92.4V128.95z"/>
	</g>
	<g id="Speaker-notes-black" style="display:none;">
		<path style="display:inline;" d="M23.213,25c-12.611,0-23.1,10.453-23.1,23.077L0,256l46.2-46.2h161.7
			c12.625,0,23.1-10.475,23.1-23.1V48.1c0-12.625-10.475-23.1-23.1-23.1H23.213z M46.2,82.75h23.1v23.1H46.2V82.75z M92.4,82.75
			h92.4v23.1H92.4V82.75z M46.2,128.95h23.1v23.1H46.2V128.95z M92.4,128.95h92.4v23.1H92.4V128.95z"/>
	</g>
	<g id="Privacy-dkUV" style="display:none;">
		<path style="display:inline;fill:#48086F;" d="M90.923,22.172c-37.009,0-66.808,29.798-66.808,66.808v11.135
			c-12.248,0-22.269,10.021-22.269,22.269v111.346C1.846,245.979,11.867,256,24.115,256h133.616
			C169.979,256,180,245.979,180,233.731V122.384c0-12.248-10.021-22.269-22.269-22.269V88.98
			C157.731,51.971,127.932,22.172,90.923,22.172z M90.923,44.442c25.345,0,44.539,19.194,44.539,44.539v11.135H46.384V88.98
			C46.384,63.636,65.578,44.442,90.923,44.442z M90.923,133.519c24.496,0,44.539,20.042,44.539,44.539
			c0,24.496-20.042,44.539-44.539,44.539s-44.539-20.042-44.539-44.539C46.384,153.561,66.427,133.519,90.923,133.519z
			 M90.923,155.788c-12.304,0-22.269,9.966-22.269,22.269c0,12.304,9.966,22.269,22.269,22.269s22.269-9.966,22.269-22.269
			c0-2.283-0.453-4.431-1.087-6.502c-1.759,3.819-5.56,6.502-10.047,6.502c-6.146,0-11.135-4.988-11.135-11.135
			c0-4.487,2.683-8.288,6.502-10.047C95.354,156.241,93.205,155.788,90.923,155.788z"/>
	</g>
	<g id="Privacy-black" style="display:none;">
		<path style="display:inline;" d="M90.923,22.172c-37.009,0-66.808,29.798-66.808,66.808v11.135
			c-12.248,0-22.269,10.021-22.269,22.269v111.346C1.846,245.979,11.867,256,24.115,256h133.616
			C169.979,256,180,245.979,180,233.731V122.384c0-12.248-10.021-22.269-22.269-22.269V88.98
			C157.731,51.971,127.932,22.172,90.923,22.172z M90.923,44.442c25.345,0,44.539,19.194,44.539,44.539v11.135H46.384V88.98
			C46.384,63.636,65.578,44.442,90.923,44.442z M90.923,133.519c24.496,0,44.539,20.042,44.539,44.539
			c0,24.496-20.042,44.539-44.539,44.539s-44.539-20.042-44.539-44.539C46.384,153.561,66.427,133.519,90.923,133.519z
			 M90.923,155.788c-12.304,0-22.269,9.966-22.269,22.269c0,12.304,9.966,22.269,22.269,22.269s22.269-9.966,22.269-22.269
			c0-2.283-0.453-4.431-1.087-6.502c-1.759,3.819-5.56,6.502-10.047,6.502c-6.146,0-11.135-4.988-11.135-11.135
			c0-4.487,2.683-8.288,6.502-10.047C95.354,156.241,93.205,155.788,90.923,155.788z"/>
	</g>
	<g id="Org_chart_people-dkUV" style="display:none;">
		<path style="display:inline;fill:#48086F;" d="M113.521,38.83c-19.052,0-34.55,15.498-34.55,34.55
			c0,12.348,6.562,23.137,16.33,29.248c-9.765,5.239-16.33,14.465-16.33,25.045c0,5.449,4.412,9.871,9.871,9.871h49.357
			c5.459,0,9.871-4.422,9.871-9.871c0-10.58-6.565-19.806-16.33-25.045c9.769-6.11,16.33-16.9,16.33-29.248
			C148.071,54.328,132.573,38.83,113.521,38.83z M29.614,78.315c-5.459,0-9.871,4.422-9.871,9.871v39.485
			c0,5.449,4.413,9.871,9.871,9.871s9.871-4.422,9.871-9.871V98.058h19.743c5.459,0,9.871-4.422,9.871-9.871
			c0-5.449-4.413-9.871-9.871-9.871H29.614z M167.813,78.315c-5.459,0-9.871,4.422-9.871,9.871c0,5.449,4.413,9.871,9.871,9.871
			h19.743v29.614c0,5.449,4.413,9.871,9.871,9.871s9.871-4.422,9.871-9.871V88.187c0-5.449-4.413-9.871-9.871-9.871H167.813z
			 M34.55,157.286c-19.052,0-34.55,15.498-34.55,34.55c0,12.348,6.562,23.137,16.33,29.248C6.565,226.323,0,235.549,0,246.129
			C0,251.587,4.413,256,9.871,256h49.357c5.459,0,9.871-4.413,9.871-9.871c0-10.58-6.565-19.806-16.33-25.045
			c9.769-6.11,16.33-16.9,16.33-29.248C69.1,172.784,53.602,157.286,34.55,157.286z M113.521,157.286
			c-19.052,0-34.55,15.498-34.55,34.55c0,12.348,6.562,23.137,16.33,29.248c-9.765,5.239-16.33,14.465-16.33,25.045
			c0,5.459,4.412,9.871,9.871,9.871h49.357c5.459,0,9.871-4.413,9.871-9.871c0-10.58-6.565-19.806-16.33-25.045
			c9.769-6.11,16.33-16.9,16.33-29.248C148.071,172.784,132.573,157.286,113.521,157.286z M192.492,157.286
			c-19.052,0-34.55,15.498-34.55,34.55c0,12.348,6.562,23.137,16.33,29.248c-9.765,5.239-16.33,14.465-16.33,25.045
			c0,5.459,4.413,9.871,9.871,9.871h49.357c5.459,0,9.871-4.413,9.871-9.871c0-10.58-6.565-19.806-16.33-25.045
			c9.769-6.11,16.33-16.9,16.33-29.248C227.042,172.784,211.544,157.286,192.492,157.286z"/>
	</g>
	<g id="Org_chart_people-black" style="display:none;">
		<path style="display:inline;" d="M113.521,38.83c-19.052,0-34.55,15.498-34.55,34.55c0,12.348,6.562,23.137,16.33,29.248
			c-9.765,5.239-16.33,14.465-16.33,25.045c0,5.449,4.412,9.871,9.871,9.871h49.357c5.459,0,9.871-4.422,9.871-9.871
			c0-10.58-6.565-19.806-16.33-25.045c9.769-6.11,16.33-16.9,16.33-29.248C148.071,54.328,132.573,38.83,113.521,38.83z
			 M29.614,78.315c-5.459,0-9.871,4.422-9.871,9.871v39.485c0,5.449,4.413,9.871,9.871,9.871s9.871-4.422,9.871-9.871V98.058h19.743
			c5.459,0,9.871-4.422,9.871-9.871c0-5.449-4.413-9.871-9.871-9.871H29.614z M167.813,78.315c-5.459,0-9.871,4.422-9.871,9.871
			c0,5.449,4.413,9.871,9.871,9.871h19.743v29.614c0,5.449,4.413,9.871,9.871,9.871s9.871-4.422,9.871-9.871V88.187
			c0-5.449-4.413-9.871-9.871-9.871H167.813z M34.55,157.286c-19.052,0-34.55,15.498-34.55,34.55
			c0,12.348,6.562,23.137,16.33,29.248C6.565,226.323,0,235.549,0,246.129C0,251.587,4.413,256,9.871,256h49.357
			c5.459,0,9.871-4.413,9.871-9.871c0-10.58-6.565-19.806-16.33-25.045c9.769-6.11,16.33-16.9,16.33-29.248
			C69.1,172.784,53.602,157.286,34.55,157.286z M113.521,157.286c-19.052,0-34.55,15.498-34.55,34.55
			c0,12.348,6.562,23.137,16.33,29.248c-9.765,5.239-16.33,14.465-16.33,25.045c0,5.459,4.412,9.871,9.871,9.871h49.357
			c5.459,0,9.871-4.413,9.871-9.871c0-10.58-6.565-19.806-16.33-25.045c9.769-6.11,16.33-16.9,16.33-29.248
			C148.071,172.784,132.573,157.286,113.521,157.286z M192.492,157.286c-19.052,0-34.55,15.498-34.55,34.55
			c0,12.348,6.562,23.137,16.33,29.248c-9.765,5.239-16.33,14.465-16.33,25.045c0,5.459,4.413,9.871,9.871,9.871h49.357
			c5.459,0,9.871-4.413,9.871-9.871c0-10.58-6.565-19.806-16.33-25.045c9.769-6.11,16.33-16.9,16.33-29.248
			C227.042,172.784,211.544,157.286,192.492,157.286z"/>
	</g>
	<g id="Omnichannel-dkUV" style="display:none;">
		<path style="display:inline;fill:#48086F;" d="M103.636,28c-10.951,0.012-20.003,8.541-20.667,19.472L32.143,72.896
			c-3.386-2.24-7.356-3.437-11.416-3.441C9.28,69.455,0,78.734,0,90.182c0.006,7.399,3.956,14.234,10.364,17.934v67.789
			C3.962,179.6,0.013,186.426,0,193.818c0,11.447,9.28,20.727,20.727,20.727c4.06-0.004,8.03-1.201,11.416-3.441l50.826,25.403
			c0.653,10.939,9.708,19.48,20.667,19.493c10.951-0.012,20.003-8.541,20.667-19.472l50.826-25.423
			c3.386,2.24,7.356,3.437,11.416,3.441c11.447,0,20.727-9.28,20.727-20.727c-0.006-7.399-3.956-14.234-10.364-17.934v-67.789
			c6.402-3.696,10.351-10.522,10.364-17.914c0-11.447-9.28-20.727-20.727-20.727c-4.06,0.004-8.03,1.201-11.416,3.441
			l-50.826-25.403C123.65,36.553,114.595,28.013,103.636,28z M92.22,66.013c3.386,2.24,7.356,3.437,11.416,3.441
			c4.06-0.004,8.03-1.201,11.416-3.441l50.826,25.403c0.415,6.942,4.284,13.214,10.303,16.699v67.789
			c-6.007,3.478-9.875,9.731-10.303,16.659l-50.826,25.423c-3.386-2.24-7.356-3.437-11.416-3.441
			c-4.06,0.004-8.03,1.201-11.416,3.441l-50.826-25.403c-0.415-6.942-4.284-13.214-10.303-16.699v-67.789
			c6.007-3.478,9.874-9.731,10.303-16.659L92.22,66.013z M103.636,100.545c-11.452,0-20.727,9.275-20.727,20.727v10.364
			c-5.721,0-10.364,4.643-10.364,10.364v20.727c0,5.721,4.643,10.364,10.364,10.364h41.455c5.721,0,10.364-4.643,10.364-10.364V142
			c0-5.721-4.643-10.364-10.364-10.364v-10.364C124.364,109.821,115.088,100.545,103.636,100.545z M103.636,110.909
			c5.71,0,10.364,4.653,10.364,10.364v10.364H93.273v-10.364C93.273,115.562,97.926,110.909,103.636,110.909z"/>
	</g>
	<g id="Omnichannel-black" style="display:none;">
		<path style="display:inline;" d="M103.636,28c-10.951,0.012-20.003,8.541-20.667,19.472L32.143,72.896
			c-3.386-2.24-7.356-3.437-11.416-3.441C9.28,69.455,0,78.734,0,90.182c0.006,7.399,3.956,14.234,10.364,17.934v67.789
			C3.962,179.6,0.013,186.426,0,193.818c0,11.447,9.28,20.727,20.727,20.727c4.06-0.004,8.03-1.201,11.416-3.441l50.826,25.403
			c0.653,10.939,9.708,19.48,20.667,19.493c10.951-0.012,20.003-8.541,20.667-19.472l50.826-25.423
			c3.386,2.24,7.356,3.437,11.416,3.441c11.447,0,20.727-9.28,20.727-20.727c-0.006-7.399-3.956-14.234-10.364-17.934v-67.789
			c6.402-3.696,10.351-10.522,10.364-17.914c0-11.447-9.28-20.727-20.727-20.727c-4.06,0.004-8.03,1.201-11.416,3.441
			l-50.826-25.403C123.65,36.553,114.595,28.013,103.636,28z M92.22,66.013c3.386,2.24,7.356,3.437,11.416,3.441
			c4.06-0.004,8.03-1.201,11.416-3.441l50.826,25.403c0.415,6.942,4.284,13.214,10.303,16.699v67.789
			c-6.007,3.478-9.875,9.731-10.303,16.659l-50.826,25.423c-3.386-2.24-7.356-3.437-11.416-3.441
			c-4.06,0.004-8.03,1.201-11.416,3.441l-50.826-25.403c-0.415-6.942-4.284-13.214-10.303-16.699v-67.789
			c6.007-3.478,9.874-9.731,10.303-16.659L92.22,66.013z M103.636,100.545c-11.452,0-20.727,9.275-20.727,20.727v10.364
			c-5.721,0-10.364,4.643-10.364,10.364v20.727c0,5.721,4.643,10.364,10.364,10.364h41.455c5.721,0,10.364-4.643,10.364-10.364V142
			c0-5.721-4.643-10.364-10.364-10.364v-10.364C124.364,109.821,115.088,100.545,103.636,100.545z M103.636,110.909
			c5.71,0,10.364,4.653,10.364,10.364v10.364H93.273v-10.364C93.273,115.562,97.926,110.909,103.636,110.909z"/>
	</g>
	<g id="Internet-dkUV" style="display:none;">
		<path style="display:inline;fill:#48086F;" d="M111.667,26.822c-36.426,0-68.714,17.61-89.115,44.667h-0.218v0.284
			C8.375,90.409,0,113.464,0,138.488c0,61.573,50.094,111.667,111.667,111.667c3.774,0,7.493-0.199,11.167-0.567v-18.429v-92.67
			H78.167v-22.333h11.167c6.164,0,11.167-5.003,11.167-11.167V82.655h22.333c12.339,0,22.333-9.994,22.333-22.333v-4.58
			C177.863,69.03,201,101.08,201,138.488c0,1.206-0.13,2.382-0.174,3.577l20.109,19.367c1.552-7.415,2.399-15.083,2.399-22.944
			C223.333,76.915,173.24,26.822,111.667,26.822z M145.167,116.155v111.667l25.387-24.144L193.257,256l24.558-11.167l-22.879-50.512
			h31.45L145.167,116.155z M24.667,118.489l20,20l33.5,33.5v11.167c0,12.339,9.994,22.333,22.333,22.333v21.57
			c-43.997-5.527-78.167-43.099-78.167-88.57C22.333,131.61,23.193,124.932,24.667,118.489z"/>
	</g>
	<g id="Internet-black" style="display:none;">
		<path style="display:inline;" d="M111.667,26.822c-36.426,0-68.714,17.61-89.115,44.667h-0.218v0.284
			C8.375,90.409,0,113.464,0,138.488c0,61.573,50.094,111.667,111.667,111.667c3.774,0,7.493-0.199,11.167-0.567v-18.429v-92.67
			H78.167v-22.333h11.167c6.164,0,11.167-5.003,11.167-11.167V82.655h22.333c12.339,0,22.333-9.994,22.333-22.333v-4.58
			C177.863,69.03,201,101.08,201,138.488c0,1.206-0.13,2.382-0.174,3.577l20.109,19.367c1.552-7.415,2.399-15.083,2.399-22.944
			C223.333,76.915,173.24,26.822,111.667,26.822z M145.167,116.155v111.667l25.387-24.144L193.257,256l24.558-11.167l-22.879-50.512
			h31.45L145.167,116.155z M24.667,118.489l20,20l33.5,33.5v11.167c0,12.339,9.994,22.333,22.333,22.333v21.57
			c-43.997-5.527-78.167-43.099-78.167-88.57C22.333,131.61,23.193,124.932,24.667,118.489z"/>
	</g>
	<g id="Idea-bank-dkUV" style="display:none;">
		<path style="display:inline;fill:#48086F;" d="M47.638,33.69c-2.923,0-5.293,2.37-5.293,5.293s2.37,5.293,5.293,5.293
			c2.923,0,5.293-2.37,5.293-5.293S50.561,33.69,47.638,33.69z M100.569,33.69c-20.463,0-37.052,16.589-37.052,37.052
			c0,14.757,8.691,27.391,21.172,33.351v14.287c0,5.844,4.743,10.586,10.586,10.586h10.586c5.844,0,10.586-4.743,10.586-10.586
			v-14.287c12.481-5.96,21.172-18.593,21.172-33.351C137.62,50.279,121.032,33.69,100.569,33.69z M153.5,33.69
			c-2.923,0-5.293,2.37-5.293,5.293s2.37,5.293,5.293,5.293c2.923,0,5.293-2.37,5.293-5.293S156.423,33.69,153.5,33.69z
			 M100.569,54.863c8.755,0,15.879,7.124,15.879,15.879s-7.124,15.879-15.879,15.879s-15.879-7.124-15.879-15.879
			S91.814,54.863,100.569,54.863z M37.052,65.449c-2.923,0-5.293,2.37-5.293,5.293s2.37,5.293,5.293,5.293s5.293-2.37,5.293-5.293
			S39.975,65.449,37.052,65.449z M164.086,65.449c-2.923,0-5.293,2.37-5.293,5.293s2.37,5.293,5.293,5.293s5.293-2.37,5.293-5.293
			S167.009,65.449,164.086,65.449z M201.137,86.621l-31.759,10.586l-14.68-5.438c-3.61,9.157-9.435,17.374-17.078,23.716v2.895
			c0,17.51-14.249,31.759-31.759,31.759H95.276c-17.51,0-31.759-14.249-31.759-31.759v-2.895
			c-5.971-4.954-10.802-11.058-14.391-17.843c-18.981,10.593-29.768,27.202-34.86,42.593c-1.177-0.444-2.423-0.675-3.68-0.682
			C4.74,139.552,0,144.292,0,150.138s4.74,10.586,10.586,10.586c0,12.322,4.142,24.881,11.372,36.452l8.332,49.974
			c0.847,5.103,5.265,8.849,10.441,8.849H65.13c5.177,0,9.595-3.736,10.441-8.849l1.261-7.567
			c10.724,3.652,22.254,5.831,34.322,5.831c7.357,0,14.498-0.605,21.4-1.716l4.301,7.154c1.916,3.197,5.35,5.148,9.077,5.148h23.447
			c6.68,0,11.682-6.101,10.379-12.654l-3.163-15.838c10.607-6.712,19.252-15.028,25.328-24.439h12.137
			c4.859,0,9.08-3.301,10.255-8.022l6.203-24.811c1.334-5.367-1.676-10.866-6.926-12.612l-15.114-5.045
			c-2.699-8.236-7.24-16.834-13.708-25.039C198.337,115.969,201.137,102.003,201.137,86.621z M169.379,150.138
			c5.844,0,10.586,4.743,10.586,10.586s-4.743,10.586-10.586,10.586s-10.586-4.743-10.586-10.586S163.535,150.138,169.379,150.138z"
			/>
	</g>
	<g id="Idea-bank-black" style="display:none;">
		<path style="display:inline;" d="M47.638,33.69c-2.923,0-5.293,2.37-5.293,5.293s2.37,5.293,5.293,5.293
			c2.923,0,5.293-2.37,5.293-5.293S50.561,33.69,47.638,33.69z M100.569,33.69c-20.463,0-37.052,16.589-37.052,37.052
			c0,14.757,8.691,27.391,21.172,33.351v14.287c0,5.844,4.743,10.586,10.586,10.586h10.586c5.844,0,10.586-4.743,10.586-10.586
			v-14.287c12.481-5.96,21.172-18.593,21.172-33.351C137.62,50.279,121.032,33.69,100.569,33.69z M153.5,33.69
			c-2.923,0-5.293,2.37-5.293,5.293s2.37,5.293,5.293,5.293c2.923,0,5.293-2.37,5.293-5.293S156.423,33.69,153.5,33.69z
			 M100.569,54.863c8.755,0,15.879,7.124,15.879,15.879s-7.124,15.879-15.879,15.879s-15.879-7.124-15.879-15.879
			S91.814,54.863,100.569,54.863z M37.052,65.449c-2.923,0-5.293,2.37-5.293,5.293s2.37,5.293,5.293,5.293s5.293-2.37,5.293-5.293
			S39.975,65.449,37.052,65.449z M164.086,65.449c-2.923,0-5.293,2.37-5.293,5.293s2.37,5.293,5.293,5.293s5.293-2.37,5.293-5.293
			S167.009,65.449,164.086,65.449z M201.137,86.621l-31.759,10.586l-14.68-5.438c-3.61,9.157-9.435,17.374-17.078,23.716v2.895
			c0,17.51-14.249,31.759-31.759,31.759H95.276c-17.51,0-31.759-14.249-31.759-31.759v-2.895
			c-5.971-4.954-10.802-11.058-14.391-17.843c-18.981,10.593-29.768,27.202-34.86,42.593c-1.177-0.444-2.423-0.675-3.68-0.682
			C4.74,139.552,0,144.292,0,150.138s4.74,10.586,10.586,10.586c0,12.322,4.142,24.881,11.372,36.452l8.332,49.974
			c0.847,5.103,5.265,8.849,10.441,8.849H65.13c5.177,0,9.595-3.736,10.441-8.849l1.261-7.567
			c10.724,3.652,22.254,5.831,34.322,5.831c7.357,0,14.498-0.605,21.4-1.716l4.301,7.154c1.916,3.197,5.35,5.148,9.077,5.148h23.447
			c6.68,0,11.682-6.101,10.379-12.654l-3.163-15.838c10.607-6.712,19.252-15.028,25.328-24.439h12.137
			c4.859,0,9.08-3.301,10.255-8.022l6.203-24.811c1.334-5.367-1.676-10.866-6.926-12.612l-15.114-5.045
			c-2.699-8.236-7.24-16.834-13.708-25.039C198.337,115.969,201.137,102.003,201.137,86.621z M169.379,150.138
			c5.844,0,10.586,4.743,10.586,10.586s-4.743,10.586-10.586,10.586s-10.586-4.743-10.586-10.586S163.535,150.138,169.379,150.138z"
			/>
	</g>
	<g id="Feedback-dkUV" style="display:none;">
		<path style="display:inline;fill:#48086F;" d="M114.164,28L11.327,88.003C4.325,92.085,0,99.609,0,107.714v125.453
			C0,245.646,10.354,256,22.833,256h182.662c12.479,0,22.833-10.354,22.833-22.833V107.714c0-8.105-4.325-15.628-11.327-19.711
			L114.164,28z M114.164,54.445l91.331,53.269v0.557l-91.331,56.814l-91.331-56.814v-0.557L114.164,54.445z M114.164,73.755
			l-34.249,34.249h22.833v27.158l11.416,7.091l11.416-7.091v-27.158h22.833L114.164,73.755z"/>
	</g>
	<g id="Feedback-black" style="display:none;">
		<path style="display:inline;" d="M114.164,28L11.327,88.003C4.325,92.085,0,99.609,0,107.714v125.453
			C0,245.646,10.354,256,22.833,256h182.662c12.479,0,22.833-10.354,22.833-22.833V107.714c0-8.105-4.325-15.628-11.327-19.711
			L114.164,28z M114.164,54.445l91.331,53.269v0.557l-91.331,56.814l-91.331-56.814v-0.557L114.164,54.445z M114.164,73.755
			l-34.249,34.249h22.833v27.158l11.416,7.091l11.416-7.091v-27.158h22.833L114.164,73.755z"/>
	</g>
	<g id="Demand-dkUV" style="display:none;">
		<path style="display:inline;fill:#48086F;" d="M102.257,25.921v89.475h51.129v34.477l-19.623,29.434h-31.506H51.129
			C33.298,179.307,0,187.967,0,208.866V256h102.257v-51.129h31.506c8.564,0,16.515-4.252,21.27-11.384l23.917-35.875v-42.216h51.129
			V25.921H102.257z M51.129,102.614c-14.119,0-25.564,11.446-25.564,25.564s11.446,25.564,25.564,25.564
			s25.564-11.446,25.564-25.564S65.247,102.614,51.129,102.614z"/>
	</g>
	<g id="Demand-black" style="display:none;">
		<path style="display:inline;" d="M102.257,25.921v89.475h51.129v34.477l-19.623,29.434h-31.506H51.129
			C33.298,179.307,0,187.967,0,208.866V256h102.257v-51.129h31.506c8.564,0,16.515-4.252,21.27-11.384l23.917-35.875v-42.216h51.129
			V25.921H102.257z M51.129,102.614c-14.119,0-25.564,11.446-25.564,25.564s11.446,25.564,25.564,25.564
			s25.564-11.446,25.564-25.564S65.247,102.614,51.129,102.614z"/>
	</g>
	<g id="Contact-us-dkUV">
		<path style="fill:#48086F;" d="M21.102,27.079C9.464,27.079,0,36.543,0,48.181V254h10.551h94.961v-38.043
			c0-19.921,12.042-36.817,31.097-46.883c-6.246-8.673-9.995-19.302-9.995-31.035c0-17.198,8.357-32.335,21.102-41.957V48.181
			c0-11.638-9.464-21.102-21.102-21.102H21.102z M42.205,85.284h21.102v21.102H42.205V85.284z M84.409,85.284h21.102v21.102H84.409
			V85.284z M42.205,43.284h21.102v21.102H42.205V43.284z M84.409,43.284h21.102v21.102H84.409V43.284z M179.37,106.386
			c-17.482,0-31.654,14.172-31.654,31.654s14.172,31.654,31.654,31.654s31.654-14.172,31.654-31.654S196.852,106.386,179.37,106.386
			z M42.205,127.488h21.102v21.102H42.205V127.488z M84.409,127.488h21.102v21.102H84.409V127.488z M42.205,169.693h21.102v21.102
			H42.205V169.693z M84.409,169.693h21.102v21.102H84.409V169.693z M179.37,180.244c-30.081,0-52.756,15.36-52.756,35.713V254
			h105.512v-38.043C232.126,195.604,209.451,180.244,179.37,180.244z"/>
	</g>
	<g id="Contact-us-black" style="display:none;">
		<path style="display:inline;" d="M21.102,27.079C9.464,27.079,0,36.543,0,48.181V254h10.551h94.961v-38.043
			c0-19.921,12.042-36.817,31.097-46.883c-6.246-8.673-9.995-19.302-9.995-31.035c0-17.198,8.357-32.335,21.102-41.957V48.181
			c0-11.638-9.464-21.102-21.102-21.102H21.102z M42.205,85.284h21.102v21.102H42.205V85.284z M84.409,85.284h21.102v21.102H84.409
			V85.284z M42.205,43.284h21.102v21.102H42.205V43.284z M84.409,43.284h21.102v21.102H84.409V43.284z M179.37,106.386
			c-17.482,0-31.654,14.172-31.654,31.654s14.172,31.654,31.654,31.654s31.654-14.172,31.654-31.654S196.852,106.386,179.37,106.386
			z M42.205,127.488h21.102v21.102H42.205V127.488z M84.409,127.488h21.102v21.102H84.409V127.488z M42.205,169.693h21.102v21.102
			H42.205V169.693z M84.409,169.693h21.102v21.102H84.409V169.693z M179.37,180.244c-30.081,0-52.756,15.36-52.756,35.713V254
			h105.512v-38.043C232.126,195.604,209.451,180.244,179.37,180.244z"/>
	</g>
	<g id="Conflict-dkUV" style="display:none;">
		<path style="display:inline;fill:#48086F;" d="M115.16,19.377L39.871,159.2h64.533V256l75.289-139.823H115.16V19.377z
			 M15.209,44.039L0,59.248l32.267,32.267l15.209-15.209L15.209,44.039z M193.6,44.039l-32.267,32.267l15.209,15.209l32.267-32.267
			L193.6,44.039z M32.267,183.862L0,216.129l15.209,15.209l32.267-32.267L32.267,183.862z M176.543,183.862l-15.209,15.209
			l32.267,32.267l15.209-15.209L176.543,183.862z"/>
	</g>
	<g id="Conflict-black" style="display:none;">
		<path style="display:inline;" d="M115.16,19.377L39.871,159.2h64.533V256l75.289-139.823H115.16V19.377z M15.209,44.039L0,59.248
			l32.267,32.267l15.209-15.209L15.209,44.039z M193.6,44.039l-32.267,32.267l15.209,15.209l32.267-32.267L193.6,44.039z
			 M32.267,183.862L0,216.129l15.209,15.209l32.267-32.267L32.267,183.862z M176.543,183.862l-15.209,15.209l32.267,32.267
			l15.209-15.209L176.543,183.862z"/>
	</g>
	<g id="Communication-dkUV" style="display:none;">
		<path style="display:inline;fill:#48086F;" d="M81.55,31.336C36.511,31.336,0,62.627,0,101.236c0,13.13,4.299,25.364,11.65,35.86
			v57.34l38.318-28.738c9.716,3.495,20.387,5.438,31.582,5.438c45.039,0,81.55-31.292,81.55-69.9S126.589,31.336,81.55,31.336z
			 M186.127,96.275c0.093,1.654,0.273,3.294,0.273,4.96c0,51.388-47.031,93.2-104.85,93.2c-0.233,0-0.461-0.046-0.683-0.046
			c14.096,20.888,40.397,34.996,70.583,34.996c11.196,0,21.866-1.943,31.582-5.438l38.318,28.738v-57.34
			c7.351-10.497,11.65-22.731,11.65-35.86C233,131.526,213.807,107.459,186.127,96.275z"/>
	</g>
	<g id="Communication-black" style="display:none;">
		<path style="display:inline;" d="M81.55,31.336C36.511,31.336,0,62.627,0,101.236c0,13.13,4.299,25.364,11.65,35.86v57.34
			l38.318-28.738c9.716,3.495,20.387,5.438,31.582,5.438c45.039,0,81.55-31.292,81.55-69.9S126.589,31.336,81.55,31.336z
			 M186.127,96.275c0.093,1.654,0.273,3.294,0.273,4.96c0,51.388-47.031,93.2-104.85,93.2c-0.233,0-0.461-0.046-0.683-0.046
			c14.096,20.888,40.397,34.996,70.583,34.996c11.196,0,21.866-1.943,31.582-5.438l38.318,28.738v-57.34
			c7.351-10.497,11.65-22.731,11.65-35.86C233,131.526,213.807,107.459,186.127,96.275z"/>
	</g>
	<g id="Collaboration-dkUV" style="display:none;">
		<path style="display:inline;fill:#48086F;" d="M12.299,26.827c-7.018,0-12.714,5.696-12.714,12.714v88.998l25.428-25.428h101.713
			c7.018,0,12.714-5.696,12.714-12.714V39.541c0-7.018-5.696-12.714-12.714-12.714H12.299z M164.868,39.541v50.856
			c0,9.803-3.818,18.664-9.908,25.428h48.05l25.428,25.428V52.255c0-7.018-5.696-12.714-12.714-12.714H164.868z M50.441,141.254
			c-14.044,0-25.428,11.385-25.428,25.428c0,14.044,11.385,25.428,25.428,25.428s25.428-11.385,25.428-25.428
			C75.869,152.638,64.485,141.254,50.441,141.254z M177.582,141.254c-14.044,0-25.428,11.385-25.428,25.428
			c0,14.044,11.385,25.428,25.428,25.428c14.044,0,25.428-11.385,25.428-25.428C203.01,152.638,191.625,141.254,177.582,141.254z
			 M50.441,217.538c-16.973,0-50.856,8.518-50.856,25.428v12.714h101.713v-12.714C101.297,226.057,67.414,217.538,50.441,217.538z
			 M177.582,217.538c-16.973,0-50.856,8.518-50.856,25.428v12.714h101.713v-12.714C228.438,226.057,194.555,217.538,177.582,217.538
			z"/>
	</g>
	<g id="Collaboration-black" style="display:none;">
		<path style="display:inline;" d="M12.299,26.827c-7.018,0-12.714,5.696-12.714,12.714v88.998l25.428-25.428h101.713
			c7.018,0,12.714-5.696,12.714-12.714V39.541c0-7.018-5.696-12.714-12.714-12.714H12.299z M164.868,39.541v50.856
			c0,9.803-3.818,18.664-9.908,25.428h48.05l25.428,25.428V52.255c0-7.018-5.696-12.714-12.714-12.714H164.868z M50.441,141.254
			c-14.044,0-25.428,11.385-25.428,25.428c0,14.044,11.385,25.428,25.428,25.428s25.428-11.385,25.428-25.428
			C75.869,152.638,64.485,141.254,50.441,141.254z M177.582,141.254c-14.044,0-25.428,11.385-25.428,25.428
			c0,14.044,11.385,25.428,25.428,25.428c14.044,0,25.428-11.385,25.428-25.428C203.01,152.638,191.625,141.254,177.582,141.254z
			 M50.441,217.538c-16.973,0-50.856,8.518-50.856,25.428v12.714h101.713v-12.714C101.297,226.057,67.414,217.538,50.441,217.538z
			 M177.582,217.538c-16.973,0-50.856,8.518-50.856,25.428v12.714h101.713v-12.714C228.438,226.057,194.555,217.538,177.582,217.538
			z"/>
	</g>
	<g id="Client-management-dkUV" style="display:none;">
		<path style="display:inline;fill:#48086F;" d="M-0.415,26v51.021h25.51V51.51h25.51V26H-0.415z M178.157,26v25.51h25.51v25.51
			h25.51V26H178.157z M114.381,51.51c-21.097,0-38.266,17.168-38.266,38.266s17.168,38.266,38.266,38.266
			s38.266-17.168,38.266-38.266S135.478,51.51,114.381,51.51z M114.381,140.797c-21.288,0-63.776,10.676-63.776,31.888v31.888
			h127.552v-31.888C178.157,151.473,135.67,140.797,114.381,140.797z M-0.415,204.573v51.021h51.021v-25.51h-25.51v-25.51H-0.415z
			 M203.668,204.573v25.51h-25.51v25.51h51.021v-51.021H203.668z"/>
	</g>
	<g id="Client-management-black" style="display:none;">
		<path style="display:inline;" d="M0.01,26.827v50.97h25.485V52.312h25.485V26.827H0.01z M178.404,26.827v25.485h25.485v25.485
			h25.485v-50.97H178.404z M114.692,52.312c-21.076,0-38.227,17.151-38.227,38.227s17.151,38.227,38.227,38.227
			s38.227-17.151,38.227-38.227S135.768,52.312,114.692,52.312z M114.692,141.509c-21.267,0-63.712,10.665-63.712,31.856v31.856
			h127.425v-31.856C178.404,152.175,135.959,141.509,114.692,141.509z M0.01,205.222v50.97h50.97v-25.485H25.495v-25.485H0.01z
			 M203.889,205.222v25.485h-25.485v25.485h50.97v-50.97H203.889z"/>
	</g>
	<g id="Brainstorm-dkUV" style="display:none;">
		<path style="display:inline;fill:#48086F;" d="M46.547,29.074c-2.882,0-5.218,2.336-5.218,5.218s2.336,5.218,5.218,5.218
			s5.218-2.336,5.218-5.218S49.429,29.074,46.547,29.074z M98.727,29.074c-2.882,0-5.218,2.336-5.218,5.218s2.336,5.218,5.218,5.218
			s5.218-2.336,5.218-5.218S101.609,29.074,98.727,29.074z M25.675,39.51c-2.882,0-5.218,2.336-5.218,5.218s2.336,5.218,5.218,5.218
			s5.218-2.336,5.218-5.218S28.557,39.51,25.675,39.51z M119.599,39.51c-2.882,0-5.218,2.336-5.218,5.218s2.336,5.218,5.218,5.218
			c2.882,0,5.218-2.336,5.218-5.218S122.481,39.51,119.599,39.51z M72.637,49.946c-23.055,0-41.744,18.69-41.744,41.744
			c0.018,19.02,12.892,35.624,31.308,40.379v11.802c0,5.761,4.675,10.436,10.436,10.436s10.436-4.675,10.436-10.436v-11.822
			c18.409-4.753,31.281-21.345,31.308-40.358C114.381,68.636,95.692,49.946,72.637,49.946z M150.908,49.946
			c-2.882,0-5.218,2.336-5.218,5.218s2.336,5.218,5.218,5.218s5.218-2.336,5.218-5.218S153.789,49.946,150.908,49.946z
			 M182.216,49.946c-2.882,0-5.218,2.336-5.218,5.218s2.336,5.218,5.218,5.218s5.218-2.336,5.218-5.218
			S185.098,49.946,182.216,49.946z M15.239,60.382c-2.882,0-5.218,2.336-5.218,5.218s2.336,5.218,5.218,5.218
			s5.218-2.336,5.218-5.218S18.121,60.382,15.239,60.382z M130.035,60.382c-2.882,0-5.218,2.336-5.218,5.218
			s2.336,5.218,5.218,5.218s5.218-2.336,5.218-5.218S132.917,60.382,130.035,60.382z M203.088,60.382
			c-2.882,0-5.218,2.336-5.218,5.218s2.336,5.218,5.218,5.218s5.218-2.336,5.218-5.218S205.97,60.382,203.088,60.382z
			 M166.562,70.818c-17.291,0-31.308,14.017-31.308,31.308c0.01,13.259,8.371,25.074,20.872,29.494v12.25
			c0,5.761,4.675,10.436,10.436,10.436s10.436-4.675,10.436-10.436V131.6c12.494-4.417,20.854-16.222,20.872-29.474
			C197.87,84.836,183.853,70.818,166.562,70.818z M213.524,81.254c-2.882,0-5.218,2.336-5.218,5.218s2.336,5.218,5.218,5.218
			s5.218-2.336,5.218-5.218S216.406,81.254,213.524,81.254z M72.637,164.743c-43.007,0-73.052,16.181-73.052,39.359v51.491H145.69
			v-51.491C145.69,180.924,115.644,164.743,72.637,164.743z M166.562,164.743c-6.439,0-12.602,0.49-18.447,1.325
			c11.782,10.029,18.447,22.975,18.447,38.035v51.491h62.616v-57.28C229.178,178.548,203.422,164.743,166.562,164.743z"/>
	</g>
	<g id="Brainstorm-black" style="display:none;">
		<path style="display:inline;" d="M46.547,29.074c-2.882,0-5.218,2.336-5.218,5.218s2.336,5.218,5.218,5.218
			s5.218-2.336,5.218-5.218S49.429,29.074,46.547,29.074z M98.727,29.074c-2.882,0-5.218,2.336-5.218,5.218s2.336,5.218,5.218,5.218
			s5.218-2.336,5.218-5.218S101.609,29.074,98.727,29.074z M25.675,39.51c-2.882,0-5.218,2.336-5.218,5.218s2.336,5.218,5.218,5.218
			s5.218-2.336,5.218-5.218S28.557,39.51,25.675,39.51z M119.599,39.51c-2.882,0-5.218,2.336-5.218,5.218s2.336,5.218,5.218,5.218
			c2.882,0,5.218-2.336,5.218-5.218S122.481,39.51,119.599,39.51z M72.637,49.946c-23.055,0-41.744,18.69-41.744,41.744
			c0.018,19.02,12.892,35.624,31.308,40.379v11.802c0,5.761,4.675,10.436,10.436,10.436s10.436-4.675,10.436-10.436v-11.822
			c18.409-4.753,31.281-21.345,31.308-40.358C114.381,68.636,95.692,49.946,72.637,49.946z M150.908,49.946
			c-2.882,0-5.218,2.336-5.218,5.218s2.336,5.218,5.218,5.218s5.218-2.336,5.218-5.218S153.789,49.946,150.908,49.946z
			 M182.216,49.946c-2.882,0-5.218,2.336-5.218,5.218s2.336,5.218,5.218,5.218s5.218-2.336,5.218-5.218
			S185.098,49.946,182.216,49.946z M15.239,60.382c-2.882,0-5.218,2.336-5.218,5.218s2.336,5.218,5.218,5.218
			s5.218-2.336,5.218-5.218S18.121,60.382,15.239,60.382z M130.035,60.382c-2.882,0-5.218,2.336-5.218,5.218
			s2.336,5.218,5.218,5.218s5.218-2.336,5.218-5.218S132.917,60.382,130.035,60.382z M203.088,60.382
			c-2.882,0-5.218,2.336-5.218,5.218s2.336,5.218,5.218,5.218s5.218-2.336,5.218-5.218S205.97,60.382,203.088,60.382z
			 M166.562,70.818c-17.291,0-31.308,14.017-31.308,31.308c0.01,13.259,8.371,25.074,20.872,29.494v12.25
			c0,5.761,4.675,10.436,10.436,10.436s10.436-4.675,10.436-10.436V131.6c12.494-4.417,20.854-16.222,20.872-29.474
			C197.87,84.836,183.853,70.818,166.562,70.818z M213.524,81.254c-2.882,0-5.218,2.336-5.218,5.218s2.336,5.218,5.218,5.218
			s5.218-2.336,5.218-5.218S216.406,81.254,213.524,81.254z M72.637,164.743c-43.007,0-73.052,16.181-73.052,39.359v51.491H145.69
			v-51.491C145.69,180.924,115.644,164.743,72.637,164.743z M166.562,164.743c-6.439,0-12.602,0.49-18.447,1.325
			c11.782,10.029,18.447,22.975,18.447,38.035v51.491h62.616v-57.28C229.178,178.548,203.422,164.743,166.562,164.743z"/>
	</g>
	<g id="Attraction-dkUV" style="display:none;">
		<path style="display:inline;fill:#48086F;" d="M195.977,26.827c-12.052,0-21.821,9.77-21.821,21.821s9.77,21.821,21.821,21.821
			s21.821-9.77,21.821-21.821S208.028,26.827,195.977,26.827z M86.87,58.131c-48.077,0-87.285,39.208-87.285,87.285
			s39.208,87.285,87.285,87.285h54.553v-65.464H86.87c-12.184,0-21.821-9.638-21.821-21.821s9.638-21.821,21.821-21.821h54.553
			v-10.911V58.131H86.87z M86.87,79.952h32.732v21.821H86.87c-23.974,0-43.643,19.668-43.643,43.643H21.406
			C21.406,109.132,50.586,79.952,86.87,79.952z M195.977,81.38c-21.821,0-32.732,9.765-32.732,21.821v10.911h65.464v-10.911
			C228.709,91.145,217.798,81.38,195.977,81.38z M195.977,168.395c-12.052,0-21.821,9.77-21.821,21.821
			c0,12.052,9.77,21.821,21.821,21.821s21.821-9.77,21.821-21.821C217.798,178.165,208.028,168.395,195.977,168.395z
			 M195.977,222.948c-21.821,0-32.732,9.765-32.732,21.821v10.911h65.464V244.77C228.709,232.713,217.798,222.948,195.977,222.948z"
			/>
	</g>
	<g id="Attraction-black" style="display:none;">
		<path style="display:inline;" d="M195.944,26.827c-12.05,0-21.818,9.768-21.818,21.818s9.768,21.818,21.818,21.818
			s21.818-9.768,21.818-21.818S207.994,26.827,195.944,26.827z M86.856,58.126c-48.069,0-87.271,39.202-87.271,87.271
			s39.202,87.271,87.271,87.271H141.4v-65.453H86.856c-12.182,0-21.818-9.636-21.818-21.818s9.636-21.818,21.818-21.818H141.4
			V112.67V58.126H86.856z M86.856,79.943h32.727v21.818H86.856c-23.97,0-43.635,19.665-43.635,43.635H21.402
			C21.402,109.118,50.578,79.943,86.856,79.943z M195.944,81.371c-21.818,0-32.727,9.763-32.727,21.818v10.909h65.453v-10.909
			C228.671,91.135,217.762,81.371,195.944,81.371z M195.944,168.372c-12.05,0-21.818,9.768-21.818,21.818
			c0,12.05,9.768,21.818,21.818,21.818s21.818-9.768,21.818-21.818C217.762,178.14,207.994,168.372,195.944,168.372z
			 M195.944,222.916c-21.818,0-32.727,9.763-32.727,21.818v10.909h65.453v-10.909C228.671,232.68,217.762,222.916,195.944,222.916z"
			/>
	</g>
	<g id="Accuracy-dkUV" style="display:none;">
		<path style="display:inline;fill:#48086F;" d="M103.797,26.378v21.444c-43.366,4.83-77.927,39.376-82.759,82.724H-0.415v20.833
			h21.453c4.832,43.347,39.393,77.894,82.759,82.724v21.444h20.843v-21.444c43.366-4.83,77.927-39.376,82.759-82.724h21.453v-20.833
			h-21.453c-4.832-43.347-39.393-77.893-82.759-82.724V26.378H103.797z M103.797,68.859v21.078
			c-20.333,4.172-36.453,20.285-40.627,40.609H42.084C46.64,98.548,71.786,73.413,103.797,68.859z M124.64,68.859
			c32.012,4.554,57.157,29.689,61.713,61.687h-21.087c-4.173-20.324-20.294-36.437-40.627-40.609V68.859z M114.219,109.712
			c17.39,0,31.264,13.868,31.264,31.25s-13.874,31.25-31.264,31.25s-31.264-13.868-31.264-31.25S96.829,109.712,114.219,109.712z
			 M114.219,130.545c-5.756,0-10.421,4.664-10.421,10.417c0,5.753,4.666,10.417,10.421,10.417s10.421-4.664,10.421-10.417
			C124.64,135.209,119.974,130.545,114.219,130.545z M42.084,151.379h21.087c4.173,20.324,20.294,36.437,40.627,40.609v21.078
			C71.786,208.511,46.64,183.377,42.084,151.379z M165.266,151.379h21.087c-4.556,31.998-29.702,57.132-61.713,61.687v-21.078
			C144.973,187.816,161.093,171.703,165.266,151.379z"/>
	</g>
	<g id="Accuracy-black" style="display:none;">
		<path style="display:inline;" d="M103.797,26.378v21.444c-43.366,4.83-77.927,39.376-82.759,82.724H-0.415v20.833h21.453
			c4.832,43.347,39.393,77.894,82.759,82.724v21.444h20.843v-21.444c43.366-4.83,77.927-39.376,82.759-82.724h21.453v-20.833
			h-21.453c-4.832-43.347-39.393-77.893-82.759-82.724V26.378H103.797z M103.797,68.859v21.078
			c-20.333,4.172-36.453,20.285-40.627,40.609H42.084C46.64,98.548,71.786,73.413,103.797,68.859z M124.64,68.859
			c32.012,4.554,57.157,29.689,61.713,61.687h-21.087c-4.173-20.324-20.294-36.437-40.627-40.609V68.859z M114.219,109.712
			c17.39,0,31.264,13.868,31.264,31.25s-13.874,31.25-31.264,31.25s-31.264-13.868-31.264-31.25S96.829,109.712,114.219,109.712z
			 M114.219,130.545c-5.756,0-10.421,4.664-10.421,10.417c0,5.753,4.666,10.417,10.421,10.417s10.421-4.664,10.421-10.417
			C124.64,135.209,119.974,130.545,114.219,130.545z M42.084,151.379h21.087c4.173,20.324,20.294,36.437,40.627,40.609v21.078
			C71.786,208.511,46.64,183.377,42.084,151.379z M165.266,151.379h21.087c-4.556,31.998-29.702,57.132-61.713,61.687v-21.078
			C144.973,187.816,161.093,171.703,165.266,151.379z"/>
	</g>
</g>
</svg>
