<?xml version="1.0" encoding="iso-8859-1"?>
<!-- Generator: Adobe Illustrator 26.3.1, SVG Export Plug-In . SVG Version: 6.00 Build 0)  -->
<svg version="1.1" xmlns="http://www.w3.org/2000/svg" xmlns:xlink="http://www.w3.org/1999/xlink" x="0px" y="0px"
	 viewBox="0 0 256 256" style="enable-background:new 0 0 256 256;" xml:space="preserve">
<g id="Guides__x28_DO_NOT_MOVE_x29_" style="display:none;">
	<g style="display:inline;">
		<rect x="25.622" y="0.252" style="fill:#BDA7D0;" width="230.174" height="230.174"/>
		<g>
			<defs>
				<rect id="SVGID_1_" x="0.048" y="0.252" width="255.748" height="255.748"/>
			</defs>
			<clipPath id="SVGID_00000116938049591816815190000005391638171395331491_">
				<use xlink:href="#SVGID_1_"  style="overflow:visible;"/>
			</clipPath>
			<path style="clip-path:url(#SVGID_00000116938049591816815190000005391638171395331491_);fill:#49256C;" d="M183.477,100.585
				l-10.506,10.506l30.736,118.437c1.243,4.813-0.163,9.928-3.667,13.432l-13.038,13.038l-56.075-102.842l-51.421,51.421
				l7.258,29.053c1.315,5.181-0.21,10.665-3.984,14.445l-7.949,7.923l-27.851-46.465l0.342-0.348l-0.532,0.072L0.049,181.197
				l7.923-7.928c3.78-3.775,9.263-5.299,14.445-4.005l29.053,7.279l51.421-51.421h-0.025L0.049,69.021l13.038-13.012
				c3.503-3.524,8.618-4.91,13.406-3.663l118.442,30.706l15.34-15.34l36.081-36.055c7.719-7.719,20.158-7.785,27.923-0.118
				c3.959,3.898,5.944,9.008,5.944,14.122c0,5.069-1.938,10.138-5.831,14.03L183.477,100.585z"/>
		</g>
		<line style="fill:none;stroke:#808080;stroke-width:0.325;" x1="0.048" y1="255.873" x2="255.797" y2="255.873"/>
		<line style="fill:none;stroke:#808080;stroke-width:0.325;" x1="51.273" y1="256" x2="51.273" y2="0.252"/>
		<line style="fill:none;stroke:#808080;stroke-width:0.325;" x1="25.725" y1="256" x2="25.725" y2="0.252"/>
		<line style="fill:none;stroke:#808080;stroke-width:0.325;" x1="0.175" y1="256" x2="0.175" y2="0.252"/>
		<line style="fill:none;stroke:#808080;stroke-width:0.325;" x1="76.824" y1="256" x2="76.824" y2="0.252"/>
		<line style="fill:none;stroke:#808080;stroke-width:0.325;" x1="102.372" y1="256" x2="102.372" y2="0.252"/>
		<line style="fill:none;stroke:#808080;stroke-width:0.325;" x1="127.922" y1="256" x2="127.922" y2="0.252"/>
		<line style="fill:none;stroke:#808080;stroke-width:0.325;" x1="153.473" y1="256" x2="153.473" y2="0.252"/>
		<line style="fill:none;stroke:#808080;stroke-width:0.325;" x1="179.021" y1="256" x2="179.021" y2="0.252"/>
		<line style="fill:none;stroke:#808080;stroke-width:0.325;" x1="204.571" y1="256" x2="204.571" y2="0.252"/>
		<line style="fill:none;stroke:#808080;stroke-width:0.325;" x1="230.119" y1="256" x2="230.119" y2="0.252"/>
		<line style="fill:none;stroke:#808080;stroke-width:0.325;" x1="255.67" y1="256" x2="255.67" y2="0.252"/>
		<line style="fill:none;stroke:#808080;stroke-width:0.325;" x1="0.048" y1="204.775" x2="255.797" y2="204.775"/>
		<line style="fill:none;stroke:#808080;stroke-width:0.325;" x1="0.048" y1="230.323" x2="255.797" y2="230.323"/>
		<line style="fill:none;stroke:#808080;stroke-width:0.325;" x1="0.048" y1="179.224" x2="255.797" y2="179.224"/>
		<line style="fill:none;stroke:#808080;stroke-width:0.325;" x1="0.048" y1="153.676" x2="255.797" y2="153.676"/>
		<line style="fill:none;stroke:#808080;stroke-width:0.325;" x1="0.048" y1="128.126" x2="255.797" y2="128.126"/>
		<line style="fill:none;stroke:#808080;stroke-width:0.325;" x1="0.048" y1="102.575" x2="255.797" y2="102.575"/>
		<line style="fill:none;stroke:#808080;stroke-width:0.325;" x1="0.048" y1="77.027" x2="255.797" y2="77.027"/>
		<line style="fill:none;stroke:#808080;stroke-width:0.325;" x1="0.048" y1="51.477" x2="255.797" y2="51.477"/>
		<line style="fill:none;stroke:#808080;stroke-width:0.325;" x1="0.048" y1="25.929" x2="255.797" y2="25.929"/>
		<line style="fill:none;stroke:#808080;stroke-width:0.325;" x1="0.048" y1="0.378" x2="255.797" y2="0.378"/>
		<rect x="0.556" y="26.309" style="fill:none;stroke:#49256C;stroke-width:1.3;" width="229.198" height="229.189"/>
		<rect x="26.091" y="0.759" style="fill:none;stroke:#49256C;stroke-width:1.3;" width="229.198" height="229.189"/>
	</g>
</g>
<g id="colors">
	<g id="fireworks" style="display:none;">
		<rect x="26" style="display:inline;fill:#E377DC;" width="230" height="230"/>
	</g>
	<g id="coral" style="display:none;">
		<rect x="26" style="display:inline;fill:#FFA3C2;" width="230" height="230"/>
	</g>
	<g id="UV">
		<rect x="26" style="fill:#C2A8F0;" width="230" height="229.871"/>
	</g>
</g>
<g id="icons">
	<g id="Accuracy_black" style="display:none;">
		<path style="display:inline;" d="M103.797,26.378v21.444c-43.366,4.83-77.927,39.376-82.759,82.724H-0.415v20.833h21.453
			c4.832,43.347,39.393,77.894,82.759,82.724v21.444h20.843v-21.444c43.366-4.83,77.927-39.376,82.759-82.724h21.453v-20.833
			h-21.453c-4.832-43.347-39.393-77.893-82.759-82.724V26.378H103.797z M103.797,68.859v21.078
			c-20.333,4.172-36.453,20.285-40.627,40.609H42.084C46.64,98.548,71.786,73.413,103.797,68.859z M124.64,68.859
			c32.012,4.554,57.157,29.689,61.713,61.687h-21.087c-4.173-20.324-20.294-36.437-40.627-40.609V68.859z M114.219,109.712
			c17.39,0,31.264,13.868,31.264,31.25s-13.874,31.25-31.264,31.25s-31.264-13.868-31.264-31.25S96.829,109.712,114.219,109.712z
			 M114.219,130.545c-5.756,0-10.421,4.664-10.421,10.417c0,5.753,4.666,10.417,10.421,10.417s10.421-4.664,10.421-10.417
			C124.64,135.209,119.974,130.545,114.219,130.545z M42.084,151.379h21.087c4.173,20.324,20.294,36.437,40.627,40.609v21.078
			C71.786,208.511,46.64,183.377,42.084,151.379z M165.266,151.379h21.087c-4.556,31.998-29.702,57.132-61.713,61.687v-21.078
			C144.973,187.816,161.093,171.703,165.266,151.379z"/>
	</g>
	<g id="Lightening">
		<polygon points="156.857,26.827 104.552,26.827 51.131,156.304 100.952,156.304 51.846,255.705 143.904,133.734 93.406,133.734 		
			"/>
	</g>
</g>
</svg>
